<?xml version="1.0" standalone="no"?>
<!DOCTYPE svg PUBLIC "-//W3C//DTD SVG 20010904//EN"
 "http://www.w3.org/TR/2001/REC-SVG-20010904/DTD/svg10.dtd">
<svg version="1.0" xmlns="http://www.w3.org/2000/svg"
 width="258.000000pt" height="258.000000pt" viewBox="0 0 258.000000 258.000000"
 preserveAspectRatio="xMidYMid meet">
<metadata>
Created by potrace 1.11, written by Peter Selinger 2001-2013
</metadata>
<g transform="translate(0.000000,258.000000) scale(0.100000,-0.100000)"
fill="#000000" stroke="none">
<path d="M1365 2464 c11 -143 13 -307 4 -340 -7 -25 -14 -31 -36 -31 -16 0
-44 -3 -64 -7 -36 -7 -37 -6 -77 56 -54 85 -87 142 -118 210 l-26 56 -46 -19
c-26 -11 -65 -36 -88 -54 l-42 -34 38 -43 c69 -77 209 -272 200 -278 -5 -3
-19 -28 -31 -55 -33 -77 -36 -79 -77 -45 -121 97 -394 93 -485 -8 -17 -19 -16
-20 21 -54 21 -19 59 -49 85 -67 l48 -32 -73 -48 c-40 -27 -84 -58 -98 -70
-72 -63 -147 -143 -185 -196 -42 -59 -118 -195 -110 -195 3 0 -2 -17 -10 -37
-30 -78 -39 -218 -21 -313 73 -376 458 -749 849 -821 59 -11 198 -13 297 -5
344 28 535 132 614 333 41 104 50 184 51 408 0 116 -3 229 -8 253 l-7 44 47
-40 c59 -49 96 -68 149 -77 91 -15 174 35 215 127 32 74 36 218 9 316 -55 200
-225 396 -493 569 l-78 51 53 12 c85 20 102 33 132 99 29 65 56 174 56 230 l0
33 -67 -5 c-112 -9 -217 -58 -272 -129 -30 -37 -78 -151 -73 -171 2 -7 -28 -4
-116 9 l-34 5 8 52 c4 29 9 63 11 77 2 14 5 88 8 166 l4 141 -62 0 c-35 0 -73
4 -86 8 l-23 7 7 -88z"/>
</g>
</svg>
